<svg xmlns="http://www.w3.org/2000/svg" width="592.777" height="238.645" viewBox="0 0 592.777 238.645">
  <g id="Group_3" data-name="Group 3" transform="translate(-144.302 -156.923)">
    <g id="Group_1" data-name="Group 1" transform="translate(196.353 205.707)">
      <path id="Path_1" data-name="Path 1" d="M259.827,199.066v14.749h-59.17v34.9h52.826v14.754H200.657v35.374h61.391v14.91h-76.78V199.066Z" transform="translate(-185.268 -194.304)" fill="#ffffff"/>
      <path id="Path_2" data-name="Path 2" d="M329.351,284.63h-44.1l-12.214,30.141H257.807l50.128-119.453h.953l50.128,119.453H341.249Zm-5.235-13.322-16.338-41.881L290.8,271.308Z" transform="translate(-165.64 -195.318)" fill="#ffffff"/>
      <path id="Path_3" data-name="Path 3" d="M417.453,313.757,390.487,271.4a33.414,33.414,0,0,1-3.808.156H369.705v42.2H354.316V199.066h30.617a50.676,50.676,0,0,1,20.941,4.124,32.856,32.856,0,0,1,14.435,12.134q5.235,8.012,5.236,19.274a41.226,41.226,0,0,1-4.681,19.511A30.481,30.481,0,0,1,406.509,267.6l28.87,46.16Zm-13.245-63.612a22.5,22.5,0,0,0,5.472-14.91,23.421,23.421,0,0,0-2.3-10,19.636,19.636,0,0,0-7.3-8.171q-5-3.249-12.612-3.253H369.705V256.65H386.36Q398.737,256.65,404.208,250.145Z" transform="translate(-139.526 -194.304)" fill="#ffffff"/>
      <path id="Path_4" data-name="Path 4" d="M452.106,199.066v99.78h58.378v14.91H436.718V199.066Z" transform="translate(-117.229 -194.304)" fill="#ffffff"/>
      <path id="Path_5" data-name="Path 5" d="M588.936,199.066v14.749H529.764v34.9H582.59v14.754H529.764v35.374h61.391v14.91h-76.78V199.066Z" transform="translate(-96.216 -194.304)" fill="#ffffff"/>
    </g>
    <g id="Group_2" data-name="Group 2" transform="translate(326.042 352.488)">
      <path id="Path_6" data-name="Path 6" d="M312.024,341.659H296.808l-4.215,10.4h-5.255l17.3-41.218h.329l17.3,41.218H316.13Zm-1.806-4.6-5.638-14.454-5.857,14.454Z" transform="translate(-287.338 -310.84)" fill="#ffffff"/>
      <path id="Path_7" data-name="Path 7" d="M345.621,312.131v5.091H335v34.486h-5.309V317.222H319.348v-5.091Z" transform="translate(-278.677 -310.491)" fill="#ffffff"/>
      <path id="Path_8" data-name="Path 8" d="M372.517,312.131v34.434h20.145v5.143H367.209V312.131Z" transform="translate(-265.726 -310.491)" fill="#ffffff"/>
      <path id="Path_9" data-name="Path 9" d="M419.036,341.659H403.82l-4.215,10.4H394.35l17.3-41.218h.329l17.3,41.218h-6.132Zm-1.805-4.6-5.638-14.454-5.857,14.454Z" transform="translate(-258.382 -310.84)" fill="#ffffff"/>
      <path id="Path_10" data-name="Path 10" d="M459.563,353.425l-9.25-23.648-10.128,23.759-15.764-41.275h6.185l10.236,28.792,6.843-17.952-4.216-10.839h5.255l11,28.192,9.743-28.192h5.694Z" transform="translate(-250.245 -310.456)" fill="#ffffff"/>
    </g>
    <path id="Path_11" data-name="Path 11" d="M737.079,382.834h-175.2v-4.211H732.868V161.134H148.512V378.623h156.5v4.211H144.3V156.923H737.079Z" transform="translate(0 0)" fill="#ffffff"/>
  </g>
</svg>
